<svg xmlns="http://www.w3.org/2000/svg" xmlns:xlink="http://www.w3.org/1999/xlink" width="594" height="702" viewBox="0 0 594 702" version="1.1">
  <defs>
    <polygon points="0.6 392.8 558.6 392.8 558.6 0.7 0.6 0.7 0.6 392.8"/>
  </defs>
  <g stroke="none" stroke-width="1" fill="none" fill-rule="evenodd">
    <g transform="translate(-846.000000, -1628.000000)">
      <g transform="translate(351.000000, 283.000000)">
        <g transform="translate(495.000000, 1345.000000)">
          <g transform="translate(0.000000, 0.391931)">
            <path d="M144.6 0.4C140.2 11.1 139.3 21.9 141.1 33 142.6 42.5 143.2 52 142.5 61.5 139.7 95.1 126.3 161.6 64.2 179 -19.9 202.5-10 327 29.6 350.8 29.6 350.8 22.9 226 103 232.2 137.8 234.9 166 219.6 186.6 201.5 213.4 178.1 253.9 179.7 278.2 205.7 326.1 256.9 368.1 312.6 368.1 373.8 368.2 585.7 103 553.4 103 701.1L593.6 701.1 593.6 0.6 144.6 0.4Z" fill="#831212"/>
            <path d="M473.9 36.4C473.9 36.4 442.8 123.9 536.2 151.7 536.2 151.7 476.9 167.7 449.4 118.7 419.5 65.4 473.9 36.4 473.9 36.4" fill="#FFFFFF"/>
            <path d="M274.3 55.9C279.6 55.9 279.6 47.6 274.3 47.6 269 47.6 269 55.9 274.3 55.9" fill="#FFFFFF"/>
            <path d="M312.3 118.6C317.6 118.6 317.6 110.3 312.3 110.3 307 110.3 306.9 118.6 312.3 118.6" fill="#FFFFFF"/>
            <path d="M474 247.3C479.3 247.3 479.3 239 474 239 468.7 239 468.6 247.3 474 247.3" fill="#FFFFFF"/>
            <path d="M536.7 55.9C542 55.9 542 47.6 536.7 47.6 531.4 47.6 531.3 55.9 536.7 55.9" fill="#FFFFFF"/>
            <path d="M366.7 31.1C372 31.1 372 22.8 366.7 22.8 361.4 22.8 361.4 31.1 366.7 31.1" fill="#FFFFFF"/>
            <path d="M409.6 308.3C414.9 308.3 414.9 300.1 409.6 300.1 404.3 300.1 404.3 308.3 409.6 308.3" fill="#FFFFFF"/>
            <path d="M546.6 453.6C551.9 453.6 551.9 445.3 546.6 445.3 541.3 445.3 541.2 453.6 546.6 453.6" fill="#FFFFFF"/>
            <path d="M459.1 470.1C464.4 470.1 464.4 461.8 459.1 461.8 453.8 461.8 453.8 470.1 459.1 470.1" fill="#FFFFFF"/>
            <path d="M546.6 285.2C551.9 285.2 551.9 277 546.6 277 541.3 277 541.2 285.2 546.6 285.2" fill="#FFFFFF"/>
            <path d="M366.7 174.7C372 174.7 372 166.4 366.7 166.4 361.4 166.4 361.4 174.7 366.7 174.7" fill="#FFFFFF"/>
            <path d="M188.5 46C193.8 46 193.8 37.7 188.5 37.7 183.2 37.7 183.2 46 188.5 46" fill="#FFFFFF"/>
            <path d="M482.2 346.3C487.5 346.3 487.5 338 482.2 338 476.9 338 476.9 346.3 482.2 346.3" fill="#FFFFFF"/>
            <path d="M403 465.1C408.3 465.1 408.3 456.9 403 456.9 397.7 456.9 397.7 465.1 403 465.1" fill="#FFFFFF"/>
            <path d="M521.8 400.8C527.1 400.8 527.1 392.5 521.8 392.5 516.5 392.5 516.5 400.8 521.8 400.8" fill="#FFFFFF"/>
            <path d="M452.5 397.5C457.8 397.5 457.8 389.2 452.5 389.2 447.2 389.2 447.2 397.5 452.5 397.5" fill="#FFFFFF"/>
            <path d="M563.1 143.3C568.4 143.3 568.4 135.1 563.1 135.1 557.8 135.1 557.7 143.3 563.1 143.3" fill="#FFFFFF"/>
            <path d="M543.3 215.9C548.6 215.9 548.6 207.7 543.3 207.7 538 207.7 537.9 215.9 543.3 215.9" fill="#FFFFFF"/>
            <path d="M502 496.5C507.3 496.5 507.3 488.2 502 488.2 496.7 488.2 496.7 496.5 502 496.5" fill="#FFFFFF"/>
            <path d="M392.1 113.8C397.5 113.8 397.5 105.5 392.1 105.5 386.8 105.5 386.8 113.8 392.1 113.8" fill="#FFFFFF"/>
            <path d="M267.7 121.9C273 121.9 273 113.6 267.7 113.6 262.4 113.6 262.4 121.9 267.7 121.9" fill="#FFFFFF"/>
            <path d="M452.5 192.8C457.8 192.8 457.8 184.6 452.5 184.6 447.2 184.6 447.2 192.8 452.5 192.8" fill="#FFFFFF"/>
            <path d="M361.8 253.9C367.1 253.9 367.1 245.6 361.8 245.6 356.5 245.6 356.4 253.9 361.8 253.9" fill="#FFFFFF"/>
            <path d="M219.9 112C225.2 112 225.2 103.7 219.9 103.7 214.6 103.7 214.5 112 219.9 112" fill="#FFFFFF"/>
            <path d="M163.8 178C169.1 178 169.1 169.7 163.8 169.7 158.5 169.7 158.4 178 163.8 178" fill="#FFFFFF"/>
            <path d="M112.6 197.8C117.9 197.8 117.9 189.5 112.6 189.5 107.3 189.5 107.3 197.8 112.6 197.8" fill="#FFFFFF"/>
            <path d="M180.3 108.7C185.6 108.7 185.6 100.4 180.3 100.4 175 100.4 174.9 108.7 180.3 108.7" fill="#FFFFFF"/>
            <path d="M254.5 168.1C259.8 168.1 259.8 159.8 254.5 159.8 249.2 159.8 249.2 168.1 254.5 168.1" fill="#FFFFFF"/>
            <path d="M342 207.7C347.3 207.7 347.3 199.4 342 199.4 336.7 199.4 336.6 207.7 342 207.7" fill="#FFFFFF"/>
            <path d="M30.1 245.6C35.4 245.6 35.4 237.4 30.1 237.4 24.8 237.4 24.8 245.6 30.1 245.6" fill="#FFFFFF"/>
          </g>
          <g transform="translate(34.650000, 308.985827)">
            <mask fill="white">
              <use xlink:href="#path-1"/>
            </mask>
            <polygon fill="#831212" mask="url(#mask-2)" points="331.2 276.2 339.5 276.2 339.5 265.4 331.2 265.4"/>
            <polygon fill="#FFFFFF" mask="url(#mask-2)" points="486.8 397.1 613 397.1 610.6 306.8 486.8 306.8"/>
            <path d="M486.6 397.2L486 375 485.4 352.5C485.3 344.9 485.1 337.3 485 329.7 484.9 322.1 484.8 314.4 484.7 306.8L484.7 304.8 486.8 304.8C497.1 304.7 507.4 304.6 517.7 304.7 528.1 304.6 538.4 304.8 548.7 304.8L579.7 305.1C590 305.2 600.3 305.5 610.6 305.7L611.8 305.7 611.8 306.8 612 329.3C612.1 336.9 612.2 344.4 612.4 351.9L612.7 363.2 613.2 374.5 614.3 397 614.3 398.3 613 398.4 597 398.7C591.7 398.8 586.4 398.8 581.1 398.8 575.8 398.8 570.4 398.8 565.1 398.8L549.2 398.6C538.6 398.5 528.1 398.3 517.6 398L502 397.7 486.6 397.2ZM486.9 396.9L503 396.5 519 396.1C529.6 395.9 540 395.7 550.5 395.5L566.1 395.4C571.4 395.3 576.5 395.3 581.7 395.3 586.9 395.3 592.1 395.4 597.3 395.5L613 395.8 611.7 397.1 611.6 374.5 611.4 363.2 611.2 352C611 344.4 610.8 336.9 610.5 329.4L609.5 306.8 610.6 307.9C600.3 308.1 590 308.3 579.7 308.5L548.7 308.8C538.4 308.8 528.1 309 517.7 308.9 507.4 309 497.1 308.9 486.8 308.8L488.8 306.8C488.7 314.2 488.6 321.6 488.5 329 488.4 336.5 488.3 343.9 488.1 351.4L486.9 396.9Z" fill="#831212" mask="url(#mask-2)"/>
            <polygon fill="#831212" mask="url(#mask-2)" points="464 239.8 464 276.9 671.1 278.3 695.4 271.2 695.4 191.2"/>
            <path d="M463.9 239.6L492.3 233.1 520.9 226.6 578.6 213.8 607.7 207.5 636.8 201.4 695 189.5 697.2 189 697.2 191.2 697 211.2C696.9 217.9 696.8 224.5 696.7 231.2L696.2 271.2 696.2 271.8 695.6 271.9 683.4 275.4 671.2 278.9 671.2 278.9 671.1 278.9C653.8 278.8 636.6 278.7 619.3 278.9L593.4 279.2C584.8 279.2 576.2 279.3 567.5 279.3 558.9 279.4 550.3 279.3 541.7 279.2L515.8 278.9C498.5 278.7 481.3 278.4 464 278L462.9 277.9 462.9 276.9 463.1 267.5 463.4 258.1 463.9 239.6ZM464.2 239.9L464.7 258.6 464.9 267.8 465.1 276.9 464 275.8C481.3 275.6 498.5 275.6 515.8 275.6L541.7 275.6C550.3 275.7 558.9 275.7 567.6 275.9 576.2 276 584.8 276.2 593.4 276.4L619.3 277C636.6 277.4 653.8 277.6 671.1 277.7L670.9 277.7 683 274.1 695.1 270.4 694.6 271.2 694 231.2C693.9 224.5 693.8 217.9 693.8 211.2L693.6 191.2 695.7 193 638.3 205.3 609.6 211.3 580.7 217.2 522.8 228.7 493.6 234.3 464.2 239.9Z" fill="#FFFFFF" mask="url(#mask-2)"/>
            <polygon fill="#831212" mask="url(#mask-2)" points="313.6 288.3 313.6 395.7 487 395.7 489.8 309.5 611.8 309.5 611.8 395.7 671 395.7 713.8 401.8 863.9 401.8 863.9 282.1 313.6 282.1"/>
            <path d="M313.4 288.3L313.4 282.1 313.4 281.8 313.6 281.8 348 281.8 382.4 281.6 451.2 281.1 519.9 280.5 588.7 280.1 657.5 280 726.3 279.9 863.9 280.2 865.8 280.2 865.8 282.1 865.4 401.8 865.4 403.3 863.9 403.3 713.8 402.5 713.7 402.5 713.7 402.5 670.9 396.4 671 396.4 641.4 396.3 611.8 396.4 611.2 396.4 611.2 395.7 611 352.6 610.8 309.5 611.8 310.5 550.8 310.8 489.8 311.2 491.5 309.5 490.2 352.7 488.8 395.8 488.7 397.5 487 397.5 465.3 397.5 443.7 397.3 400.3 397 313.6 396.4 313 396.4 313 395.7 313.2 368.9 313.3 342 313.4 288.3ZM313.8 288.3L313.9 342 314 368.9 314.2 395.7 313.6 395.1 400.3 394.4 443.7 394.1 465.3 394 487 394 485.3 395.7 486.6 352.5 488.1 309.4 488.2 307.8 489.8 307.8 550.8 308.1 611.8 308.5 612.8 308.5 612.8 309.5 612.5 352.6 612.4 395.7 611.8 395.1 641.4 395.1 671 395.1 671 395.1 671.1 395.1 713.9 401 713.8 401 863.9 400.2 862.3 401.8 862 282.1 863.9 284 726.3 284.2 657.5 284.1 588.7 284 519.9 283.6 451.2 283 382.4 282.5 348 282.3 313.6 282.3 313.8 282.1 313.8 288.3Z" fill="#FFFFFF" mask="url(#mask-2)"/>
            <polygon fill="#831212" mask="url(#mask-2)" points="692.8 239.6 541 278 670.9 278 738.8 268.3 738.8 262.6"/>
            <path d="M692.8 239.4C696.6 241.2 700.5 242.9 704.4 244.7 708.3 246.5 712.2 248.3 716.1 250.1 723.9 253.8 731.7 257.4 739.5 261.2L740.4 261.6 740.4 262.6 740.5 268.3 740.5 269.7 739.1 270 722.1 272.6C716.5 273.5 710.8 274.4 705.1 275.2 699.5 276.1 693.8 276.9 688.2 277.7L671.2 280.1 671 280.2 670.9 280.2 638.4 279.9C627.6 279.8 616.8 279.7 605.9 279.5L573.5 278.8C562.7 278.7 551.8 278.6 541 278.7L535.8 278.7 540.8 277.4C553.5 274.1 566.1 270.6 578.7 267.1 591.4 263.5 604.1 260.2 616.8 257.1 629.5 253.9 642.2 250.8 654.8 247.9 667.5 244.9 680.2 242.1 692.8 239.4L692.8 239.4ZM692.7 239.8C680 243.6 667.4 247.2 654.8 250.6 642.2 254 629.6 257.4 617 260.6 604.4 263.9 591.8 266.9 579.2 269.8 566.5 272.7 553.8 275.5 541.2 278.7L541 277.4C551.8 277.5 562.7 277.4 573.5 277.3L605.9 276.6C616.8 276.4 627.6 276.3 638.4 276.2L670.9 275.9 670.6 275.9 687.6 273.5C693.2 272.7 698.9 271.9 704.6 271.1 710.2 270.4 715.9 269.6 721.6 268.9L738.6 266.7 737.2 268.3 737.2 262.6 738.1 264C730.6 260.1 723.1 256.1 715.5 252.1 711.7 250.1 707.9 248 704.2 246L692.7 239.8Z" fill="#FFFFFF" mask="url(#mask-2)"/>
            <path d="M538 278L545.2 278C545.2 278 545.4 264.9 546.7 265.9 548.1 267 548.3 278 548.3 278L554.1 278C554.1 278 554.2 262 554.1 261.2 554 260.4 557.2 255 556.1 252.3 555 249.6 552.1 248.1 551.3 247.3 550.5 246.5 550.7 243.9 550.7 243.9L554.1 243.9 554 241.9 551.3 241.9C551.3 241.9 550.8 237.7 547.2 238 543.5 238.3 544.3 241.1 544.3 241.1L540.3 242.2 540.8 243.9 543.6 243.9 544.3 246.8C544.3 246.8 537.3 253.3 538 257.3 538.6 261.3 539.7 262.7 539.5 265.9 539.2 269.1 538 278 538 278" fill="#831212" mask="url(#mask-2)"/>
            <path d="M537.8 278.2C537.9 275.6 537.9 272.8 538 269.9L538.2 265.5C538.2 264.2 537.9 263.1 537.4 261.8 537 260.5 536.6 259 536.2 257.6 536.1 256.5 536.2 255.5 536.4 254.7 536.7 253.8 537 253.1 537.3 252.4 538.1 251 538.9 249.7 539.9 248.6 540.8 247.4 541.7 246.3 542.8 245.2L542.2 247.3 541.5 244.4 543.6 246.1 540.8 246.1 539.2 246.1 538.7 244.6 538.2 242.9 537.6 240.7 539.7 240.2 543.7 239.1 542.3 241.6C542.3 241.5 542.3 241.5 542.3 241.4L542.2 241.2C542.2 241.1 542.2 241 542.2 240.9 542.2 240.7 542.2 240.5 542.2 240.3 542.2 239.9 542.3 239.5 542.4 239 542.7 238.2 543.3 237.4 544.1 236.9 544.8 236.5 545.5 236.3 546.1 236.1 546.4 236.1 546.7 236.1 547 236 547.4 236.1 547.7 236 548.1 236.1 548.8 236.2 549.5 236.4 550.1 236.8 550.8 237.2 551.3 237.7 551.7 238.2 552.1 238.8 552.4 239.3 552.6 239.9 552.7 240.2 552.8 240.5 552.9 240.8 552.9 241.1 553 241.3 553 241.7L551.3 240.2 554 240.2 555.6 240.3 555.6 241.8 555.7 243.8 555.7 245.6 554.1 245.5C553 245.5 551.9 245.4 550.7 245.3L552.1 244.1C552 244.7 552 245.4 552.1 246 552.1 246.3 552.2 246.5 552.1 246.5 552.1 246.5 552.3 246.6 552.4 246.7L552.8 247.1C554 248 555.3 249.1 556.2 250.6 556.4 251 556.6 251.4 556.8 251.8 556.9 252.2 557.1 252.7 557.1 253.1 557.1 254 556.9 254.8 556.7 255.6 556.3 257.2 555.7 258.6 555.1 260 555 260.3 554.8 260.7 554.7 261 554.7 261 554.8 261.6 554.7 262L554.8 264.3C554.9 265.8 554.9 267.3 555 268.9L555.6 278.1 555.7 279.5 554.1 279.5C553.1 279.6 552.2 279.7 551.2 279.7L548.3 279.8 546.7 279.9 546.6 278.1 546.2 272C546.1 271 546 270 545.9 269 545.8 268.5 545.8 268.1 545.7 267.7 545.6 267.5 545.6 267.3 545.5 267.1 545.5 267.1 545.5 267 545.5 267.1 545.5 267.1 545.5 267.1 545.5 267.1 545.6 267.1 545.6 267.1 545.6 267.2L545.8 267.3C545.9 267.4 546.1 267.5 546.3 267.5 547.4 267.6 547.7 266.9 547.7 267 547.7 266.9 547.7 266.9 547.7 266.9 547.7 266.9 547.7 266.9 547.7 267 547.6 267.1 547.5 267.3 547.5 267.5 547.4 267.9 547.3 268.4 547.2 268.9 547.1 269.9 546.9 270.9 546.8 271.9 546.6 273.9 546.4 276 546.2 278.1L546.1 279.1 545.2 279C543.9 278.9 542.6 278.8 541.3 278.6L537.8 278.2ZM538.1 277.9C539.4 277.8 540.7 277.6 541.9 277.5 543 277.3 544.1 277.2 545.2 277.1L544.3 278C544.1 275.9 544.1 273.9 544.1 271.7 544.1 270.7 544.1 269.6 544.2 268.6 544.2 268 544.3 267.5 544.4 266.9 544.5 266.6 544.5 266.3 544.6 265.9 544.6 265.8 544.7 265.7 544.7 265.6 544.8 265.5 544.8 265.4 544.9 265.2 545 265.2 545 265.1 545.1 265 545.1 265 545.2 264.9 545.2 264.8 545.3 264.8 545.4 264.7 545.4 264.6 545.6 264.5 545.7 264.4 546 264.3 546.3 264.2 546.7 264.2 546.9 264.3 547.2 264.3 547.4 264.4 547.6 264.6L547.7 264.7 547.8 264.7 547.9 264.8C548 264.9 548.1 265 548.1 265.1 548.2 265.1 548.2 265.2 548.3 265.2 548.4 265.5 548.5 265.7 548.6 265.8 548.7 266.2 548.9 266.5 548.9 266.8 549.1 267.4 549.2 267.9 549.3 268.5 549.5 269.6 549.6 270.6 549.7 271.7 550 273.8 550.1 275.9 550.1 278L548.3 276.3 551.2 276.4C552.2 276.4 553.1 276.5 554.1 276.5L552.6 278C552.8 275 553.1 271.9 553.3 268.9 553.4 267.3 553.4 265.8 553.5 264.3 553.5 263.5 553.5 262.8 553.5 262 553.5 261.8 553.5 261.6 553.5 261.5 553.5 261.4 553.5 261.4 553.5 261.1 553.5 261.1 553.5 260.9 553.5 260.9L553.6 260.7C553.7 260.3 553.8 259.9 554 259.6 554.5 258.1 555.1 256.7 555.4 255.3 555.6 254.6 555.6 253.9 555.6 253.3 555.5 252.9 555.4 252.7 555.3 252.4 555.2 252.1 555 251.8 554.8 251.6 554 250.5 552.8 249.7 551.5 248.9L551 248.6C550.8 248.4 550.6 248.3 550.4 248.1 549.8 247.5 549.7 246.9 549.6 246.5 549.4 245.5 549.3 244.7 549.3 243.8L549.4 242.6 550.7 242.5C551.9 242.5 553 242.4 554.1 242.3L552.5 244 552.3 242 554 243.6 551.3 243.7 549.9 243.8 549.5 242.1C549.5 242.1 549.4 241.8 549.4 241.7 549.4 241.5 549.3 241.4 549.2 241.2 549.1 240.9 548.9 240.7 548.8 240.5 548.4 240.1 548.1 240 547.7 239.9 547.6 239.9 547.4 239.9 547.3 239.9L546.8 240C546.6 240.1 546.4 240.2 546.3 240.2 546.2 240.3 546.3 240.3 546.3 240.3 546.3 240.3 546.3 240.4 546.3 240.4 546.3 240.4 546.3 240.5 546.3 240.5 546.3 240.5 546.3 240.5 546.3 240.5 546.3 240.5 546.3 240.6 546.3 240.5 546.3 240.5 546.3 240.6 546.3 240.5L544.9 243 540.9 244.3 542.3 241.6 542.9 243.3 540.8 241.8 543.6 241.8 545.3 241.8 545.7 243.4 546.4 246.3 546.6 247.5 545.7 248.4C543.9 250.1 542 252.1 540.7 254.2 540.1 255.2 539.7 256.3 539.7 257 539.9 258.3 540.1 259.6 540.4 261 540.8 262.4 541 264.1 540.8 265.6 540.7 266 540.7 266.3 540.6 266.6L540.4 267.6 540 269.5C539.4 272.2 538.7 274.9 538.1 277.9L538.1 277.9Z" fill="#FFFFFF" mask="url(#mask-2)"/>
            <path d="M563.4 278L568.6 278C568.6 278 571.7 264.3 572.2 265.4 572.8 266.5 572.2 278 572.2 278L578.3 278 579.5 259.6C579.5 259.6 585 259.5 584 253.9 582.9 248.2 577.7 246.3 577.7 246.3L577.7 241.9 581.5 241.9C581.5 241.9 579.2 235 572.5 235.8 565.8 236.6 566.9 242.4 566.9 242.4L570.1 243 570.4 245.7C570.4 245.7 558 249.8 558.8 254.3 559.6 258.9 565.3 257 565.3 257L563.4 278Z" fill="#831212" mask="url(#mask-2)"/>
            <path d="M563.2 278.2C563.2 274.9 563.2 271.5 563.3 267.9 563.3 264.3 563.4 260.6 563.6 256.9L565.8 258.6C565.1 258.8 564.7 258.9 564.1 259 563.5 259.1 562.9 259.2 562.3 259.2 561.1 259.1 559.5 258.8 558.4 257.6 558.1 257.3 557.9 257 557.7 256.7 557.5 256.4 557.3 256.1 557.2 255.7 557.1 255.4 557 255.1 556.9 254.7 556.8 254.4 556.8 253.9 556.8 253.5 556.9 252.6 557.2 251.9 557.5 251.3 557.9 250.7 558.3 250.1 558.7 249.7 560.4 248 562.2 247 564 246 565.9 245.1 567.7 244.3 569.7 243.7L568.2 245.9 568 243.2 569.7 245.1 566.5 244.4 565 244.1 564.8 242.7C564.8 242.3 564.8 242.1 564.8 241.8 564.8 241.5 564.8 241.2 564.8 240.9 564.9 240.3 565 239.7 565.2 239.1 565.5 237.9 566.2 236.8 567.2 236 568.1 235.2 569.2 234.6 570.3 234.3 571.4 234 572.4 233.9 573.5 233.9 575.7 233.9 578 234.8 579.5 236.2 580.4 237 581 237.8 581.5 238.7 581.8 239.1 582.1 239.6 582.3 240 582.5 240.5 582.7 240.9 582.8 241.5L583.4 243.4 581.5 243.3 577.7 243.1 578.9 241.9 578.6 246.3 578 245.4C579.6 246.2 580.9 247.2 582 248.5 583.1 249.7 583.9 251.2 584.4 252.8 584.6 253.6 584.7 254.5 584.7 255.3 584.7 256.2 584.5 257.1 584 257.9 583.5 258.7 582.8 259.3 582 259.6 581.2 260 580.4 260.3 579.5 260.3L580.2 259.7C580.1 262.7 580.1 265.8 580.1 268.9 580.1 272 580.1 275.1 580 278.2L579.9 279.7 578.3 279.8C576.3 279.8 574.3 279.9 572.2 279.8L570.3 279.8 570.4 278C570.6 275.8 570.7 273.7 570.7 271.5L570.9 268.3C570.9 267.8 570.9 267.3 570.9 266.8L570.8 266.4 570.8 266.1C570.8 265.9 570.8 266.1 570.9 266.1 570.9 266.1 570.8 266 571.1 266.4L571.1 266.4C571.2 266.5 571.3 266.6 571.3 266.6 571.5 266.7 571.7 266.8 571.8 266.8 572 266.9 572.3 266.9 572.5 266.8 572.5 266.8 572.6 266.8 572.6 266.8L572.7 266.8C572.7 266.8 572.8 266.7 572.8 266.7 572.9 266.7 573 266.6 573.1 266.6L573.1 266.5C573.2 266.4 573.3 266.4 573.3 266.4 573.3 266.3 573.3 266.3 573.3 266.3 573.3 266.3 573.2 266.6 573.1 266.8 573 267 572.9 267.2 572.8 267.5 572.6 267.9 572.4 268.4 572.3 269L571.3 272 569.3 278.2 569.1 278.8 568.6 278.8C567.6 278.7 566.7 278.6 565.8 278.5L563.2 278.2ZM563.5 277.9C564.5 277.8 565.4 277.7 566.2 277.6 567 277.5 567.8 277.4 568.6 277.3L567.9 277.9C568.2 275.7 568.6 273.6 569 271.4 569.2 270.4 569.4 269.3 569.6 268.2 569.8 267.7 569.9 267.1 570 266.6 570.1 266.3 570.2 266 570.3 265.7 570.4 265.4 570.4 265.2 570.7 264.7 570.7 264.7 570.8 264.6 570.9 264.5 570.9 264.4 571 264.4 571 264.3L571.2 264.2C571.2 264.1 571.3 264 571.5 264 571.5 264 571.6 263.9 571.6 263.9L571.7 263.9C571.7 263.9 571.8 263.9 571.9 263.9 572.1 263.8 572.3 263.8 572.5 263.9 572.7 263.9 572.9 264 573.1 264.1 573.2 264.2 573.2 264.2 573.3 264.3L573.4 264.4C573.7 264.8 573.6 264.8 573.7 264.9 573.8 265.2 573.9 265.5 573.9 265.6L574 266.1 574 266.6C574 267.2 574.1 267.7 574.1 268.3 574.1 269.4 574.2 270.5 574.2 271.6 574.2 273.8 574.1 275.9 574 278.1L572.2 276.2C574.3 276.2 576.3 276.2 578.3 276.3L576.6 277.9C576.9 274.9 577.3 271.8 577.7 268.7 578.1 265.7 578.5 262.6 578.8 259.6L578.8 258.9 579.5 258.9C580.8 258.9 582.3 258.3 583 257.2 583.3 256.7 583.5 256 583.5 255.3 583.5 254.6 583.3 253.9 583.1 253.2 582.8 251.8 581.9 250.5 580.9 249.5 579.9 248.5 578.6 247.6 577.4 247.2L576.8 247 576.7 246.3 576.5 241.9 576.4 240.8 577.7 240.8 581.5 240.5 580.2 242.4C579.9 241.7 579.5 241 579 240.4 578.5 239.8 578 239.2 577.4 238.8 576.3 237.9 574.9 237.5 573.5 237.5 572.8 237.6 572 237.7 571.4 237.9 570.7 238.1 570.2 238.5 569.8 238.9 569.4 239.2 569.2 239.7 569 240.3 568.9 240.6 568.9 240.9 568.9 241.2 568.9 241.3 568.8 241.5 568.9 241.6 568.9 241.8 568.9 242 568.9 242L567.3 240.3 570.5 240.9 572 241.2 572.2 242.8 572.5 245.5 572.7 247.2 571 247.7C569.3 248.3 567.6 249.1 565.9 249.9 564.3 250.6 562.7 251.6 561.6 252.6 561.1 253.1 560.8 253.6 560.8 253.8 560.7 253.9 560.7 253.9 560.7 254 560.8 254.2 560.8 254.3 560.8 254.4 560.9 254.6 560.9 254.7 560.9 254.8 561 254.8 561 254.9 561.1 255 561.3 255.3 561.8 255.5 562.5 255.6 562.8 255.6 563.2 255.7 563.6 255.6 564 255.6 564.4 255.5 564.7 255.4L567.2 254.9 566.9 257.2C566.5 260.5 565.9 263.8 565.3 267.2L563.5 277.9Z" fill="#FFFFFF" mask="url(#mask-2)"/>
            <polygon fill="#831212" mask="url(#mask-2)" points="308.8 275 314 288.1 671.3 288.1 671.3 278.3"/>
            <path d="M308.7 274.9L398.4 274.7C428.5 274.7 458.7 274.6 489.1 274.8 504.2 274.8 519.5 274.9 534.7 275.1L580.3 275.6C595.5 275.8 610.6 276 625.8 276.3L648.6 276.6 671.3 277.1 672.5 277.1 672.5 278.3 672.4 288.1 672.4 289.2 671.3 289.2C641.5 288.8 611.8 288.6 582 288.7 567.1 288.8 552.2 288.9 537.3 289.1L492.7 289.7C462.9 290 433.1 289.9 403.3 289.7L381 289.5 358.7 289.3 336.4 289 314 288.6 313.7 288.6 313.5 288.3C312.7 286 311.9 283.7 311.1 281.5L308.7 274.9ZM309 275.1L311.8 281.6C312.7 283.7 313.6 285.8 314.5 287.9L314 287.6 336.4 287.2 358.7 286.9 381 286.6 403.3 286.4C433.1 286.3 462.9 286.1 492.7 286.5L537.3 287C552.2 287.2 567.1 287.4 582 287.4 611.8 287.5 641.5 287.3 671.3 287L670.2 288.1 670.1 278.3 671.3 279.5 648.7 279.6 626.2 279.5C611.1 279.5 596.1 279.5 581.1 279.4L536.1 279.1C521.1 278.9 506.1 278.8 491 278.5 461 278.1 430.8 277.5 400.5 277L309 275.1Z" fill="#FFFFFF" mask="url(#mask-2)"/>
            <polygon fill="#831212" mask="url(#mask-2)" points="321.2 266.3 441.3 266.3 441.3 221.8 314 221.8"/>
            <path d="M321.1 266.5L318.9 255.6C318.2 251.9 317.5 248.2 316.8 244.5 315.4 237.1 314 229.6 312.6 222L312.4 220.4 314 220.4 329.9 220.2C335.2 220.1 340.6 220 345.9 220 351.2 220 356.5 219.9 361.8 220L369.7 220 377.7 220C388.3 220.1 398.9 220.2 409.5 220.3 414.8 220.4 420.1 220.5 425.4 220.6L441.3 220.9 442.2 220.9 442.2 221.8 442 232.9 441.9 244.1C441.9 247.8 441.8 251.5 441.9 255.2 441.9 258.9 441.9 262.6 442 266.3L442 267 441.3 267 411.1 267.6C400.9 267.8 390.8 267.9 380.7 267.7 375.7 267.7 370.7 267.7 365.6 267.6 360.6 267.5 355.6 267.4 350.6 267.3 340.7 267.1 330.8 266.8 321.1 266.5L321.1 266.5ZM321.3 266.2C331.6 265.9 341.7 265.6 351.8 265.4L366.8 265.1C371.8 265 376.8 265 381.8 264.9 391.7 264.8 401.6 264.8 411.5 265L441.3 265.7 440.7 266.3C440.8 262.6 440.8 258.9 440.8 255.2 440.8 251.5 440.8 247.8 440.8 244.1L440.7 232.9 440.5 221.8 441.3 222.7 425.4 223C420.1 223.1 414.8 223.2 409.5 223.3 398.9 223.4 388.3 223.5 377.7 223.6L369.7 223.6 361.8 223.6C356.5 223.7 351.2 223.6 345.9 223.6 340.6 223.6 335.2 223.5 329.9 223.4L314 223.2 315.4 221.6C316.5 228.9 317.4 236.2 318.4 243.6 318.9 247.3 319.4 251.1 319.8 254.8L321.3 266.2Z" fill="#FFFFFF" mask="url(#mask-2)"/>
            <path d="M297.5 36C307.4 31.2 319 38.5 318.9 49.5 318.7 84.3 318.5 149.2 319 191.9 319.4 223.6 315.1 243.1 310.9 254.4L269.2 49.6 297.5 36ZM331.9 246.9C338.2 214.6 339.6 107.9 339.8 43.9 339.9 19.6 315.8 2.6 292.9 10.7L255.7 23.9C247.6 20.9 234.7 17 216.6 15.2L216.6 11.3 222.3 11.3C222.3 11.3 220.2 2.2 204.1 2.2 188 2.2 185.5 11.3 185.5 11.3L191.8 11.3 191.8 14.1 192 14.2C153 14.8 139.2 22.7 139.2 22.7L97 196.9C67.8 246.9 63.5 166.9 63.5 166.9 54.9 24.8 7.1 45.5 7.1 45.5L2.1 64C49.2 56.8 28.5 192.3 41.3 225.9 54.2 259.4 84.2 250 84.2 250L63.2 395.8 339.7 395.8 317.5 286.8C323.1 277 328.5 264 331.9 246.9L331.9 246.9Z" fill="#831212" mask="url(#mask-2)"/>
            <path d="M332 246.9C330.7 253.9 328.8 260.8 326.5 267.5 324.1 274.2 321.2 280.7 317.7 286.9L317.7 286.8 329 341.2 340.4 395.7 340.6 396.5 339.7 396.5 270.6 397 201.5 397.3 132.3 397.5 63.2 397.6 61.2 397.6 61.5 395.6 82.5 249.7 84.7 251.5C83.3 251.9 82.1 252.1 80.9 252.3 79.6 252.5 78.3 252.7 77.1 252.7 74.6 252.9 72 252.8 69.5 252.5 64.5 251.8 59.6 250 55.3 247.2 53.2 245.8 51.2 244.1 49.5 242.3 47.8 240.4 46.2 238.4 44.8 236.3 43.4 234.2 42.3 232 41.2 229.7 40.7 228.6 40.3 227.4 39.8 226.3 39.4 225.1 39 223.9 38.7 222.7 38 220.2 37.6 217.8 37.2 215.4 36.8 213 36.5 210.5 36.2 208.1 35.8 203.2 35.4 198.3 35.2 193.5 34.8 183.8 34.6 174.1 34.4 164.4 34.2 154.7 34 145 33.5 135.3 33 125.6 32.3 116 31 106.4 30.3 101.7 29.5 96.9 28.3 92.3 27.8 89.9 27.1 87.6 26.4 85.4 25.6 83.1 24.8 80.9 23.7 78.8 21.7 74.5 19 70.5 15.3 67.8 13.4 66.5 11.3 65.6 9.1 65.1 6.9 64.7 4.5 64.7 2.2 65L0.6 65.2 1 63.7 6.1 45.2 6.2 44.7 6.7 44.6C9.1 43.7 11.5 43.4 14 43.5 16.4 43.6 18.8 44.1 21.1 44.8 23.4 45.6 25.5 46.8 27.6 48.1 28.5 48.8 29.5 49.5 30.4 50.3 31.3 51.1 32.2 51.8 33.1 52.7 33.9 53.6 34.7 54.4 35.5 55.3L37.7 58.1 39.7 61C40.4 62 41 63 41.6 64L42.5 65.5 43.3 67.1 45 70.3 46.4 73.5C46.9 74.5 47.4 75.6 47.8 76.7 51.3 85.5 53.8 94.5 55.9 103.6L57.4 110.5C57.8 112.8 58.2 115.1 58.6 117.4L59.2 120.9 59.7 124.4 60.7 131.3C61.9 140.6 62.9 149.9 63.5 159.2L64 166.2C64.1 168.6 64.3 170.9 64.5 173.2 65 177.8 65.6 182.5 66.4 187 67.2 191.6 68.3 196.2 69.8 200.6 70.5 202.7 71.4 204.9 72.5 206.9 73.7 208.9 75.1 210.8 76.9 211.9 77.9 212.5 78.9 212.8 80 212.8 81.1 212.8 82.2 212.5 83.2 212.1 85.2 211.1 86.9 209.6 88.5 207.9 91.6 204.5 94.2 200.6 96.5 196.6L96.5 196.8 106.9 153.2 117.3 109.6 138 22.4 138.1 21.9 138.6 21.7C139.7 21 140.7 20.6 141.8 20.2 142.9 19.8 144 19.4 145 19.1 147.2 18.4 149.4 17.8 151.6 17.2 156 16.2 160.5 15.4 165 14.8 167.2 14.4 169.4 14.2 171.7 13.9 173.9 13.7 176.2 13.6 178.4 13.4L185.2 13 191.9 12.8 191.6 15.5 191.4 15.5 190.4 15.2 190.4 14.1 190.4 11.3 191.8 12.7 185.5 12.7 183.6 12.7 184.2 10.9C184.3 10.6 184.4 10.3 184.5 10.1 184.6 9.8 184.7 9.6 184.8 9.4 185.1 8.9 185.3 8.5 185.6 8.1 186.2 7.2 186.9 6.5 187.7 5.8 189.2 4.5 190.9 3.5 192.7 2.7 196.3 1.2 200.2 0.7 204 0.7 207.7 0.7 211.6 1.1 215.2 2.6 217 3.4 218.8 4.4 220.3 5.7 221 6.4 221.7 7.2 222.3 8 222.6 8.4 222.9 8.9 223.1 9.4 223.2 9.6 223.3 9.8 223.4 10.1 223.5 10.4 223.6 10.6 223.7 11L224.2 12.8 222.3 12.8 216.6 12.8 218 11.3 218 15.1 216.7 13.7C223.4 14.4 230.1 15.4 236.7 16.8 243.3 18.3 249.8 20.2 256.2 22.6L255.2 22.6 291.8 9.7C294.9 8.6 298.2 7.8 301.5 7.5 304.8 7.3 308.2 7.4 311.5 8.1 314.8 8.7 318 9.8 320.9 11.4 323.9 12.9 326.7 14.8 329.1 17.1 331.6 19.3 333.7 21.9 335.5 24.8 337.2 27.6 338.5 30.7 339.4 33.9 340.3 37.1 340.8 40.4 340.7 43.7L340.7 53.4C340.5 66.3 340.3 79.3 340.1 92.2 339.7 118 339 143.9 338 169.7 337.5 182.6 336.9 195.5 336.1 208.4 335.9 211.6 335.6 214.8 335.4 218.1 335.2 221.3 334.9 224.5 334.6 227.7 334 234.1 333.2 240.6 332 246.9M331.7 246.9C332.8 240.5 333.6 234.1 334.2 227.7 334.5 224.5 334.8 221.2 335 218 335.2 214.8 335.5 211.6 335.7 208.4L336.3 198.7 336.7 189C337 182.6 337.2 176.1 337.4 169.7 338.2 143.8 338.5 118 338.7 92.2 338.8 79.2 338.8 66.3 338.8 53.4L338.8 43.7C338.8 40.6 338.3 37.5 337.4 34.4 335.7 28.4 332.2 22.9 327.6 18.8 322.9 14.6 317.1 11.7 311 10.6 308 10 304.8 9.8 301.7 10.1 298.6 10.4 295.6 11.2 292.6 12.3L256.1 25.3 255.7 25.4 255.2 25.3C242.7 20.6 229.6 18 216.4 16.6L215.1 16.5 215.1 15.1 215.1 11.3 215.1 9.8 216.6 9.8 222.3 9.8 220.9 11.6C220.8 11.6 220.8 11.4 220.7 11.2 220.6 11 220.5 10.9 220.5 10.7 220.3 10.4 220.1 10 219.9 9.7 219.4 9 218.9 8.5 218.3 7.9 217.1 6.8 215.7 6 214.1 5.4 211 4.1 207.5 3.7 204 3.7 200.5 3.7 197 4.1 193.8 5.4 192.3 6 190.8 6.9 189.6 8 189 8.5 188.4 9.1 188 9.7 187.7 10.1 187.5 10.4 187.3 10.7 187.2 10.9 187.1 11.1 187.1 11.2 187 11.4 186.9 11.6 186.9 11.7L185.5 9.9 191.8 9.9 193.2 9.9 193.2 11.3 193.2 14.1 192.2 12.8 192.3 12.8 201.5 15.3 192 15.6 185.3 15.8 178.6 16.1C176.4 16.3 174.2 16.4 171.9 16.6 169.7 16.9 167.5 17.1 165.3 17.4 160.9 17.9 156.5 18.7 152.2 19.7 150 20.2 147.9 20.8 145.8 21.4 144.7 21.7 143.7 22.1 142.7 22.5 141.7 22.9 140.6 23.3 139.8 23.7L140.3 23 118.9 110 108.2 153.5 97.6 197 97.5 197.1 97.5 197.2C95.1 201.2 92.5 205.2 89.3 208.6 87.6 210.3 85.8 212 83.6 213 82.5 213.5 81.3 213.9 80 213.8 78.7 213.8 77.5 213.4 76.4 212.8 74.3 211.5 72.8 209.4 71.7 207.4 70.5 205.3 69.6 203.1 68.8 200.9 67.3 196.4 66.2 191.8 65.4 187.2 64.5 182.6 63.9 178 63.4 173.3 63.2 171 63 168.6 62.9 166.3L62.4 159.3C61.7 150 60.7 140.7 59.5 131.5 58.2 122.2 56.7 113 54.6 103.9 52.5 94.9 49.9 85.9 46.4 77.3 46 76.2 45.5 75.2 45 74.1L43.5 71 41.9 67.9 41.1 66.4 40.2 64.9C39.6 63.9 39 62.9 38.3 61.9L36.4 59.1 34.2 56.4C33.4 55.6 32.6 54.8 31.8 53.9 31 53.1 30.1 52.4 29.3 51.6 28.4 50.9 27.5 50.3 26.6 49.6L25.1 48.7C24.9 48.6 24.6 48.4 24.4 48.3L23.6 47.9C23.1 47.7 22.6 47.4 22.1 47.2L20.5 46.6C18.4 45.9 16.2 45.5 13.9 45.4L13.1 45.4 12.3 45.4C11.7 45.4 11.1 45.5 10.6 45.6 9.5 45.8 8.4 46 7.5 46.4L8 45.7 3.1 64.2 1.9 62.9C4.4 62.5 7 62.5 9.5 63 12 63.5 14.5 64.5 16.6 66 20.8 68.9 23.7 73.3 25.9 77.7 27 80 27.9 82.3 28.7 84.6 29.5 86.9 30.1 89.3 30.8 91.7 31.9 96.4 32.8 101.2 33.5 106.1 34.9 115.7 35.7 125.5 36.2 135.2 36.7 144.9 37 154.6 37.3 164.3 37.5 174 37.8 183.7 38.2 193.3 38.5 198.2 38.8 203 39.3 207.8 39.5 210.2 39.8 212.5 40.2 214.9 40.6 217.3 41 219.6 41.7 221.9 42 223 42.3 224.1 42.7 225.2 43.2 226.3 43.6 227.4 44.1 228.4 45.1 230.6 46.2 232.7 47.5 234.6 48.7 236.6 50.2 238.4 51.8 240.1 53.4 241.8 55.2 243.2 57.1 244.5 60.9 247 65.4 248.6 69.9 249.2 72.2 249.5 74.6 249.6 76.9 249.5 78 249.4 79.2 249.3 80.3 249.1 81.5 248.9 82.7 248.7 83.7 248.4L86.1 247.7 85.8 250.2 65 396.1 63.2 394 132.3 394.1 201.5 394.3 270.6 394.7 339.7 395.1 339 395.9 328.2 341.4 317.3 286.9 317.3 286.8 317.3 286.7C320.8 280.6 323.7 274.1 326.1 267.4 328.5 260.7 330.3 253.8 331.7 246.9" fill="#FFFFFF" mask="url(#mask-2)"/>
            <path d="M297.5 36.1L290.5 39.6 283.4 43 276.4 46.5C274.1 47.7 271.8 48.9 269.4 50.1L269.7 49.5 275.4 75C277.4 83.5 279.3 92 281.1 100.5 283 109 284.8 117.6 286.5 126.1 288.3 134.6 290.1 143.1 291.8 151.7L301.9 202.9 306.9 228.5 311.8 254.2 310.1 254.1C313.5 245 315.6 235.3 316.8 225.6 318.1 215.9 318.5 206.1 318.5 196.2L318.3 181.5 318.1 166.7 317.6 137.2C317.4 117.6 317.5 97.9 317.9 78.2 318.1 68.4 318.3 58.5 318.4 48.8 318.4 46.4 317.7 44 316.5 41.9 315.3 39.8 313.5 38.1 311.5 36.8 309.4 35.6 307 34.8 304.6 34.7 302.2 34.6 299.7 35.1 297.5 36.1L297.5 36.1ZM297.4 35.8C299.6 34.8 302.1 34.2 304.6 34.3 307.1 34.4 309.5 35.2 311.7 36.4 313.9 37.7 315.7 39.5 317 41.6 318.4 43.7 319.1 46.2 319.3 48.7 319.4 49.4 319.4 50 319.4 50.6L319.4 52.4 319.5 56.1 319.6 63.5 320 78.2C320.4 97.9 320.5 117.6 320.4 137.2L319.9 166.7C319.8 176.6 319.6 186.4 319.6 196.2 319.6 198.7 319.5 201.2 319.5 203.6 319.4 206.1 319.3 208.5 319.1 211 318.9 215.9 318.5 220.8 317.9 225.7 316.7 235.5 315 245.3 311.7 254.7L310.7 257.6 310 254.6 304.5 229 299 203.5 288.3 152.4C286.6 143.8 284.8 135.3 283.2 126.8 281.5 118.2 279.8 109.7 278.1 101.1 276.5 92.6 274.9 84 273.4 75.4L268.7 49.7 268.7 49.4 269 49.2C271.4 48.1 273.8 47 276.1 45.9L283.2 42.6 290.3 39.2 297.4 35.8Z" fill="#FFFFFF" mask="url(#mask-2)"/>
            <path d="M455.8 240.7L463.9 239.9 695.2 191.2 695.2 179.8 623.9 192.6 455.2 237.2C453 237.7 453.6 241 455.8 240.7" fill="#831212" mask="url(#mask-2)"/>
            <path d="M455.8 240.9C455.3 241 454.8 240.9 454.4 240.5 454 240.2 453.7 239.7 453.6 239.2 453.6 238.7 453.7 238.1 454 237.7 454.3 237.3 454.8 237 455.3 236.9L460.7 235.4C464.3 234.5 468 233.5 471.6 232.5 478.8 230.5 486 228.3 493.2 226.3 507.6 222.1 522 217.8 536.4 213.8L547.2 210.8 558.1 207.9C565.3 205.9 572.6 203.9 579.8 202 594.3 198.2 608.8 194.5 623.4 190.7L623.4 190.7 623.5 190.7 641.4 187.6 659.3 184.6 677.1 181.6 695 178.7 696.4 178.5 696.4 179.8 696.2 191.2 696.2 192 695.4 192.1C676.1 195.9 656.8 199.8 637.6 204.1 627.9 206.2 618.3 208.4 608.7 210.6L579.9 217.2C560.7 221.5 541.4 225.5 522 229.1L493 234.5C483.3 236.3 473.6 238.2 464 240.2L464 240.2 464 240.2 455.8 240.9ZM455.8 240.5L463.9 239.7 463.9 239.7C473.5 237.7 483.1 235.5 492.7 233.2L521.5 226.4C540.7 221.9 559.9 217.8 579.2 213.9L608.3 208.3C617.9 206.5 627.6 204.7 637.3 202.7 656.6 198.8 675.8 194.7 695 190.3L694.3 191.2 694.1 179.8 695.4 180.9 677.6 184.4 659.8 187.8 642 191.2 624.2 194.6 624.4 194.5C609.9 198.5 595.4 202.4 580.9 206.2 573.7 208.1 566.4 210 559.2 211.9L548.3 214.7 537.4 217.4C522.8 221 508.2 224.4 493.6 227.9 486.3 229.7 479 231.4 471.8 233.2 468.1 234.1 464.5 235 460.9 235.9L455.4 237.4C455 237.5 454.6 237.6 454.4 238 454.1 238.3 454 238.7 454.1 239.1 454.1 239.6 454.3 240 454.6 240.2 455 240.5 455.4 240.6 455.8 240.5L455.8 240.5Z" fill="#FFFFFF" mask="url(#mask-2)"/>
            <polygon fill="#831212" mask="url(#mask-2)" points="428.1 275.8 435.7 275.8 435.7 216.1 428.1 216.1"/>
            <path d="M428.2 275.7C429.6 275.5 430.9 275.4 432.1 275.2 433.3 275.1 434.5 274.9 435.7 274.8L434.7 275.8C434.3 270.8 434 265.9 433.8 260.9 433.6 255.9 433.5 250.9 433.5 246 433.5 241 433.7 236 433.8 231 433.9 228.5 434 226.1 434.1 223.6 434.2 221.1 434.4 218.6 434.6 216.1L435.7 217.2C433.1 217.1 430.6 216.9 428.1 216.8L428.8 216.1C428.7 217.3 428.7 218.6 428.7 219.8 428.7 221.1 428.7 222.3 428.7 223.5 428.7 224.8 428.7 226 428.8 227.2 428.8 228.4 428.9 229.7 429 230.9L429.5 238.1C429.6 240.5 429.7 242.9 429.7 245.3 429.7 250.1 429.5 255 429.3 260.1 429 265.1 428.7 270.2 428.2 275.7L428.2 275.7ZM427.9 275.9C427.4 271.4 427.1 266.6 426.9 261.7 426.6 256.8 426.4 251.8 426.4 246.6 426.4 244.1 426.5 241.5 426.7 238.9L427.2 231.2C427.3 229.9 427.3 228.7 427.4 227.4 427.4 226.1 427.5 224.9 427.5 223.6 427.5 222.4 427.5 221.1 427.5 219.9 427.5 218.6 427.4 217.4 427.4 216.1L427.4 215.4 428.1 215.4C430.6 215.3 433.1 215.2 435.7 215L436.7 215 436.8 216.1C436.9 218.6 437.1 221.1 437.2 223.6 437.4 226.1 437.4 228.5 437.5 231 437.6 236 437.8 241 437.8 246 437.8 250.9 437.7 255.9 437.5 260.9 437.3 265.9 437 270.8 436.6 275.8L436.5 276.8 435.7 276.8C434.3 276.7 432.9 276.5 431.6 276.4L427.9 275.9Z" fill="#FFFFFF" mask="url(#mask-2)"/>
            <polygon fill="#FFFFFF" mask="url(#mask-2)" points="169.5 366.9 246.3 366.9 246.3 303.4 169.5 303.4"/>
            <polygon fill="#831212" mask="url(#mask-2)" points="234.3 302.4 235.9 366.8 255.3 366.8 255.3 302.6"/>
            <path d="M234.2 302.3L244.4 301.5C246.2 301.4 248 301.2 249.8 301.1 251.7 301.1 253.5 301 255.3 300.9L256.9 300.9 257 302.6C257.3 307.9 257.4 313.3 257.6 318.7 257.7 324 257.7 329.4 257.6 334.7 257.5 340.1 257.4 345.4 257.2 350.8 257.1 356.1 256.8 361.5 256.5 366.8L256.4 368.1 255.3 368C252.1 367.8 248.9 367.6 245.6 367.5 244 367.5 242.4 367.5 240.8 367.4 239.1 367.4 237.5 367.4 235.9 367.4L235.3 367.4 235.2 366.8C235 361.4 234.5 355.9 234.1 350.4 233.6 344.9 233.3 339.3 233.4 333.9 233.3 328.4 233.4 323 233.5 317.7 233.7 312.4 233.9 307.2 234.2 302.3L234.2 302.3ZM234.5 302.6C235.1 308.4 235.6 313.9 236 319.3 236.4 324.7 236.7 330 236.9 335.3 237.2 340.6 237.2 345.7 237 350.9 236.8 356.1 236.6 361.4 236.6 366.7L235.9 366.1C237.5 366.1 239.2 366.1 240.8 366.1 242.4 366.1 244 366.1 245.6 366.1 248.9 366 252.1 365.9 255.3 365.7L254.2 366.8C253.9 361.5 253.6 356.1 253.4 350.8 253.3 345.4 253.2 340.1 253.1 334.7 253 329.4 253 324 253.1 318.7 253.2 313.3 253.4 307.9 253.6 302.6L255.3 304.3C253.7 304.2 252 304.1 250.3 303.9 248.7 303.8 247 303.7 245.3 303.5L234.5 302.6Z" fill="#FFFFFF" mask="url(#mask-2)"/>
            <polygon fill="#831212" mask="url(#mask-2)" points="172.6 302.4 170.3 366.8 150.1 366.8 150.1 302.6"/>
            <path d="M172.5 302.6L160.9 303.6C157.2 303.9 153.7 304.2 150.1 304.3L151.9 302.6C152 305.3 152.1 307.9 152.2 310.6 152.2 313.3 152.3 316 152.4 318.7 152.4 324 152.5 329.4 152.3 334.7 152.3 340.1 152.1 345.4 152 350.8 151.9 356.1 151.5 361.5 151.2 366.8L150.1 365.7C153.5 365.9 156.8 366 160.2 366.1 161.9 366.1 163.6 366.1 165.2 366.1 166.9 366.1 168.6 366.1 170.3 366.1L169.6 366.7C169.7 361.4 169.5 356.1 169.4 350.9 169.3 345.7 169.3 340.5 169.7 335.3 170 330 170.4 324.7 170.8 319.3 171.3 313.9 171.8 308.3 172.5 302.6L172.5 302.6ZM172.8 302.3C173.1 307.2 173.2 312.4 173.3 317.7 173.4 323 173.3 328.4 173.3 333.9 173.2 339.4 172.9 344.9 172.4 350.4 171.9 356 171.3 361.4 171 366.8L171 367.5 170.3 367.5C168.6 367.4 166.9 367.4 165.3 367.4 163.6 367.5 161.9 367.5 160.2 367.5 156.8 367.6 153.5 367.8 150.1 368L149.1 368 149 366.8C148.7 361.5 148.4 356.1 148.2 350.8 148.1 345.4 148 340.1 147.9 334.7 147.8 329.4 147.8 324 147.9 318.7 147.9 316 148 313.3 148.1 310.6 148.1 307.9 148.2 305.3 148.4 302.6L148.5 300.8 150.1 300.8C154.1 301 158 301.2 161.8 301.5L172.8 302.3Z" fill="#FFFFFF" mask="url(#mask-2)"/>
            <path d="M240.5 306.9L240.5 362.6" fill="#831212" mask="url(#mask-2)"/>
            <path d="M240.6 306.9C240.8 309.2 241 311.5 241 313.8 241.1 316.2 241.2 318.5 241.1 320.8 241 323.1 240.8 325.4 240.7 327.8 240.7 330.1 240.8 332.4 240.9 334.7 241 337 241.1 339.4 241.2 341.7 241.2 344 241.3 346.3 241.3 348.6 241.2 353.3 241 357.9 240.6 362.6L240.4 362.6C240 357.9 239.8 353.3 239.7 348.6 239.7 346.3 239.8 344 239.8 341.7 239.9 339.4 240 337 240.1 334.7 240.2 332.4 240.3 330.1 240.3 327.8 240.2 325.4 240 323.1 239.9 320.8 239.8 318.5 239.9 316.2 239.9 313.8 240 311.5 240.2 309.2 240.4 306.9L240.6 306.9Z" fill="#FFFFFF" mask="url(#mask-2)"/>
            <path d="M246.2 304L246.2 359.7" fill="#831212" mask="url(#mask-2)"/>
            <path d="M246.3 304C246.5 306.3 246.7 308.7 246.8 311 246.8 313.3 246.9 315.6 246.8 317.9 246.7 320.3 246.5 322.6 246.4 324.9 246.4 327.2 246.5 329.5 246.6 331.9 246.7 334.2 246.8 336.5 246.9 338.8 246.9 341.1 247 343.5 247 345.8 246.9 350.4 246.7 355.1 246.3 359.7L246.1 359.7C245.7 355.1 245.5 350.4 245.4 345.8 245.4 343.5 245.5 341.1 245.5 338.8 245.6 336.5 245.7 334.2 245.8 331.9 245.9 329.5 246 327.2 246 324.9 245.9 322.6 245.7 320.3 245.6 317.9 245.5 315.6 245.6 313.3 245.7 311 245.7 308.7 245.9 306.3 246.1 304L246.3 304Z" fill="#FFFFFF" mask="url(#mask-2)"/>
            <path d="M251.9 308.3L251.9 364" fill="#831212" mask="url(#mask-2)"/>
            <path d="M252 308.3C252.2 310.6 252.4 312.9 252.5 315.3 252.6 317.6 252.6 319.9 252.5 322.2 252.4 324.5 252.2 326.9 252.2 329.2 252.1 331.5 252.2 333.8 252.3 336.1 252.4 338.5 252.5 340.8 252.6 343.1 252.6 345.4 252.7 347.8 252.7 350.1 252.6 354.7 252.4 359.4 252 364L251.8 364C251.4 359.4 251.2 354.7 251.2 350.1 251.1 347.8 251.2 345.4 251.2 343.1 251.3 340.8 251.4 338.5 251.5 336.1 251.7 333.8 251.7 331.5 251.7 329.2 251.6 326.9 251.4 324.5 251.3 322.2 251.2 319.9 251.3 317.6 251.4 315.3 251.4 312.9 251.6 310.6 251.8 308.3L252 308.3Z" fill="#FFFFFF" mask="url(#mask-2)"/>
            <path d="M167.5 306.9L167.5 362.6" fill="#831212" mask="url(#mask-2)"/>
            <path d="M167.6 306.9C167.8 309.2 168 311.5 168.1 313.8 168.1 316.2 168.2 318.5 168.1 320.8 168 323.1 167.8 325.4 167.7 327.8 167.7 330.1 167.8 332.4 167.9 334.7 168 337 168.1 339.4 168.2 341.7 168.2 344 168.3 346.3 168.3 348.6 168.2 353.3 168 357.9 167.6 362.6L167.4 362.6C167 357.9 166.8 353.3 166.8 348.6 166.7 346.3 166.8 344 166.8 341.7 166.9 339.4 167 337 167.1 334.7 167.3 332.4 167.3 330.1 167.3 327.8 167.2 325.4 167 323.1 166.9 320.8 166.8 318.5 166.9 316.2 167 313.8 167 311.5 167.2 309.2 167.4 306.9L167.6 306.9Z" fill="#FFFFFF" mask="url(#mask-2)"/>
            <path d="M161.8 304L161.8 359.7" fill="#831212" mask="url(#mask-2)"/>
            <path d="M161.9 304C162.1 306.3 162.3 308.7 162.4 311 162.4 313.3 162.5 315.6 162.4 317.9 162.3 320.3 162.1 322.6 162 324.9 162 327.2 162.1 329.5 162.2 331.9 162.3 334.2 162.4 336.5 162.5 338.8 162.5 341.1 162.6 343.5 162.6 345.8 162.5 350.4 162.3 355.1 161.9 359.7L161.7 359.7C161.3 355.1 161.1 350.4 161 345.8 161 343.5 161.1 341.1 161.1 338.8 161.2 336.5 161.3 334.2 161.4 331.9 161.5 329.5 161.6 327.2 161.6 324.9 161.5 322.6 161.3 320.3 161.2 317.9 161.1 315.6 161.2 313.3 161.3 311 161.3 308.7 161.5 306.3 161.7 304L161.9 304Z" fill="#FFFFFF" mask="url(#mask-2)"/>
            <path d="M156.1 308.3L156.1 364" fill="#831212" mask="url(#mask-2)"/>
            <path d="M156.2 308.3C156.4 310.6 156.6 312.9 156.6 315.3 156.7 317.6 156.8 319.9 156.7 322.2 156.6 324.5 156.4 326.9 156.3 329.2 156.3 331.5 156.4 333.8 156.5 336.1 156.6 338.5 156.7 340.8 156.8 343.1 156.8 345.4 156.9 347.8 156.9 350.1 156.8 354.7 156.6 359.4 156.2 364L156 364C155.6 359.4 155.4 354.7 155.3 350.1 155.3 347.8 155.4 345.4 155.4 343.1 155.5 340.8 155.6 338.5 155.7 336.1 155.8 333.8 155.9 331.5 155.9 329.2 155.8 326.9 155.6 324.5 155.5 322.2 155.4 319.9 155.5 317.6 155.5 315.3 155.6 312.9 155.8 310.6 156 308.3L156.2 308.3Z" fill="#FFFFFF" mask="url(#mask-2)"/>
            <polygon fill="#FFFFFF" mask="url(#mask-2)" points="379.8 313.2 377.5 359 435.3 359 435.3 314.3"/>
            <path d="M379.7 313.1C384 312.9 388.5 312.7 393.1 312.6 397.6 312.4 402.3 312.3 406.9 312.2 411.6 312.1 416.3 312.1 421.1 312 425.8 312 430.6 312 435.3 312.1L437.4 312.2 437.4 314.3C437.4 318 437.4 321.7 437.3 325.5L437.1 336.6C437.1 340.3 437 344.1 436.9 347.8 436.8 351.5 436.6 355.2 436.4 359L436.4 360.2 435.3 360.1C430.5 359.9 425.6 359.7 420.8 359.6 416 359.6 411.2 359.5 406.4 359.6 401.6 359.7 396.8 360 392 360.2 387.1 360.5 382.3 360.7 377.5 360.7L375.7 360.8 375.7 358.9C375.9 354.9 376.2 351 376.4 347.1 376.6 343.2 377 339.3 377.3 335.5 377.7 331.6 378 327.8 378.4 324.1 378.8 320.3 379.2 316.6 379.7 313.1L379.7 313.1ZM379.9 313.4C380 317.5 380 321.4 380 325.3 380 329.1 380 332.9 380 336.7 379.9 340.5 379.9 344.2 379.8 347.9 379.7 351.6 379.5 355.3 379.3 359L377.5 357.2C382.3 357.3 387.1 357.4 392 357.7 396.8 357.9 401.6 358.2 406.4 358.3 411.2 358.4 416 358.4 420.8 358.3 425.6 358.2 430.5 358 435.3 357.8L434.1 359C434 355.2 433.8 351.5 433.7 347.8 433.5 344.1 433.5 340.3 433.4 336.6L433.2 325.5C433.2 321.7 433.1 318 433.1 314.3L435.2 316.4C430.7 316.4 426.2 316.2 421.7 316 417.2 315.8 412.7 315.6 408.1 315.3 403.6 315 398.9 314.7 394.2 314.4L379.9 313.4Z" fill="#831212" mask="url(#mask-2)"/>
            <path d="M389.9 313.3L389.6 358.6" fill="#831212" mask="url(#mask-2)"/>
            <path d="M390 313.3C390.2 315.2 390.3 317.1 390.4 319 390.4 320.9 390.5 322.7 390.4 324.6 390.3 326.5 390.1 328.4 390 330.3 389.9 332.2 390 334.1 390.1 336 390.2 337.9 390.3 339.8 390.4 341.6 390.4 343.5 390.4 345.4 390.4 347.3 390.3 351.1 390.1 354.9 389.7 358.6L389.6 358.6C389.2 354.9 389 351.1 389 347.3 389 345.4 389 343.5 389.1 341.6 389.1 339.7 389.2 337.9 389.4 336 389.5 334.1 389.6 332.2 389.6 330.3 389.5 328.4 389.4 326.5 389.3 324.6 389.2 322.7 389.3 320.9 389.3 319 389.4 317.1 389.6 315.2 389.8 313.3L390 313.3Z" fill="#831212" mask="url(#mask-2)"/>
            <path d="M400.4 313.1L403.1 358.6" fill="#831212" mask="url(#mask-2)"/>
            <path d="M400.4 313.1C400.8 315 401 316.9 401.2 318.7 401.4 320.6 401.6 322.5 401.6 324.4 401.6 326.3 401.5 328.3 401.6 330.2 401.7 332.1 401.9 333.9 402.1 335.8 402.3 337.7 402.5 339.6 402.7 341.5 402.8 343.4 403 345.3 403.1 347.2 403.3 351 403.3 354.8 403.1 358.6L403 358.6C402.3 354.9 402 351.1 401.7 347.3 401.5 345.4 401.5 343.5 401.4 341.6 401.3 339.7 401.3 337.8 401.3 335.9 401.4 334 401.3 332.1 401.2 330.2 401 328.3 400.7 326.4 400.5 324.5 400.3 322.6 400.2 320.7 400.2 318.8 400.1 316.9 400.2 315 400.3 313.1L400.4 313.1Z" fill="#831212" mask="url(#mask-2)"/>
            <path d="M414.6 313.8L416 358.6" fill="#831212" mask="url(#mask-2)"/>
            <path d="M414.7 313.8C415 315.7 415.2 317.6 415.3 319.4 415.4 321.3 415.5 323.2 415.5 325 415.5 326.9 415.3 328.8 415.3 330.6 415.4 332.5 415.5 334.4 415.7 336.2 415.8 338.1 416 340 416.1 341.8 416.2 343.7 416.3 345.6 416.3 347.4 416.4 351.2 416.3 354.9 416 358.6L415.9 358.6C415.4 354.9 415.1 351.2 414.9 347.5 414.8 345.6 414.8 343.7 414.8 341.9 414.8 340 414.9 338.1 414.9 336.2 415 334.4 415 332.5 414.9 330.6 414.8 328.8 414.6 326.9 414.4 325.1 414.3 323.2 414.3 321.3 414.3 319.5 414.3 317.6 414.4 315.7 414.6 313.8L414.7 313.8Z" fill="#831212" mask="url(#mask-2)"/>
            <path d="M425.6 314.1L426.2 358.6" fill="#831212" mask="url(#mask-2)"/>
            <path d="M425.7 314.1C426 315.9 426.1 317.8 426.2 319.6 426.3 321.5 426.4 323.4 426.3 325.2 426.3 327.1 426.1 328.9 426.1 330.8 426 332.6 426.1 334.5 426.3 336.4 426.4 338.2 426.5 340.1 426.6 341.9 426.7 343.8 426.7 345.6 426.7 347.5 426.7 351.2 426.6 354.9 426.2 358.6L426.1 358.6C425.6 354.9 425.4 351.2 425.3 347.5 425.3 345.7 425.3 343.8 425.3 341.9 425.3 340.1 425.4 338.2 425.5 336.4 425.6 334.5 425.7 332.6 425.6 330.8 425.5 328.9 425.3 327.1 425.2 325.2 425.1 323.4 425.1 321.5 425.2 319.7 425.2 317.8 425.4 315.9 425.6 314.1L425.7 314.1Z" fill="#831212" mask="url(#mask-2)"/>
            <path d="M435.6 325.7L379.3 325.7" fill="#831212" mask="url(#mask-2)"/>
            <path d="M435.6 325.8C433.2 326 430.9 326.2 428.5 326.2 426.2 326.3 423.8 326.3 421.5 326.3 419.2 326.2 416.8 326 414.5 325.9 412.1 325.9 409.8 325.9 407.4 326.1 405.1 326.2 402.7 326.3 400.4 326.3 398 326.4 395.7 326.4 393.3 326.4 388.7 326.3 384 326.2 379.3 325.7L379.3 325.6C384 325.2 388.7 325 393.3 325 395.7 325 398 325 400.4 325.1 402.7 325.1 405.1 325.2 407.4 325.3 409.8 325.4 412.1 325.5 414.5 325.5 416.8 325.4 419.2 325.2 421.5 325.1 423.8 325.1 426.2 325.1 428.5 325.2 430.9 325.3 433.2 325.4 435.6 325.6L435.6 325.8Z" fill="#831212" mask="url(#mask-2)"/>
            <path d="M378.5 339.4L435.6 341.1" fill="#831212" mask="url(#mask-2)"/>
            <path d="M378.5 339.4C380.9 339.2 383.3 339.1 385.7 339.1 388.1 339.1 390.4 339.1 392.8 339.3 395.2 339.5 397.6 339.7 399.9 339.8 402.3 340 404.7 339.9 407.1 339.9 409.5 339.8 411.8 339.8 414.2 339.8 416.6 339.9 419 339.9 421.3 340 426.1 340.2 430.8 340.5 435.6 341L435.6 341.2C430.8 341.5 426.1 341.5 421.3 341.4 418.9 341.3 416.5 341.2 414.2 341.1 411.8 341 409.4 340.8 407 340.6 404.7 340.4 402.3 340.3 399.9 340.3 397.5 340.3 395.2 340.4 392.8 340.4 390.4 340.4 388 340.3 385.7 340.2 383.3 340 380.9 339.8 378.5 339.5L378.5 339.4Z" fill="#831212" mask="url(#mask-2)"/>
            <path d="M435.6 351L377.9 352.3" fill="#831212" mask="url(#mask-2)"/>
            <path d="M435.6 351C433.2 351.3 430.8 351.5 428.4 351.7 426 351.8 423.6 351.9 421.2 351.9 418.8 351.8 416.3 351.7 413.9 351.7 411.5 351.7 409.1 351.8 406.7 352 404.3 352.2 401.9 352.4 399.5 352.5 397.1 352.6 394.7 352.7 392.3 352.7 387.5 352.8 382.7 352.7 377.9 352.4L377.9 352.3C382.7 351.7 387.5 351.5 392.3 351.3 394.7 351.2 397.1 351.2 399.5 351.2 401.9 351.2 404.3 351.2 406.7 351.3 409.1 351.3 411.5 351.4 413.9 351.3 416.3 351.2 418.7 350.9 421.1 350.8 423.5 350.6 425.9 350.6 428.4 350.6 430.8 350.6 433.2 350.7 435.6 350.9L435.6 351Z" fill="#831212" mask="url(#mask-2)"/>
            <polygon fill="#831212" mask="url(#mask-2)" points="483.6 397.1 489.6 397.1 491 288.7 481.1 288.7"/>
            <path d="M483.4 397.2C482.8 388.6 482.2 379.8 481.7 370.9 481.2 361.9 480.7 352.9 480.4 343.7 480 334.6 479.9 325.4 479.8 316.2 479.7 307.1 479.6 297.9 479.7 288.8L479.8 287.3 481.1 287.3 491 287.7 492.1 287.7 492 288.8C491.6 297.8 491.3 306.8 491.3 315.8L491.4 322.6 491.6 329.4C491.7 333.9 491.8 338.4 491.9 342.9 492.1 352 491.9 361 491.6 370 491.3 379 490.9 388.1 490.2 397.1L490.2 397.7 489.6 397.7C487.4 397.6 485.3 397.4 483.4 397.2M483.7 396.9L489.6 396.4 489 397.1C488.6 388 488.3 379 488.3 370 488.3 360.9 488.3 351.9 488.7 342.9 488.9 338.4 489.2 333.9 489.4 329.4L489.8 322.6 490 315.8C490.3 306.8 490.2 297.8 490 288.7L491 289.8 481.1 290.1 482.5 288.7C483.1 297.6 483.4 306.5 483.7 315.4 484 324.3 484.2 333.1 484.3 342.1 484.3 351 484.3 360 484.2 369.1 484.1 378.2 483.9 387.5 483.7 396.9" fill="#FFFFFF" mask="url(#mask-2)"/>
            <polygon fill="#831212" mask="url(#mask-2)" points="468 303.2 623.8 301.9 623.8 311.1 468 311.1"/>
            <path d="M468.2 303.4C468.3 306 468.5 308.6 468.6 311.1L468 310.5C481 310 494 309.6 507 309.4 513.5 309.2 520 309.2 526.5 309.1L545.9 308.9C558.9 308.9 571.9 309.1 584.9 309.2 591.4 309.3 597.9 309.3 604.4 309.5 610.8 309.6 617.3 309.8 623.8 309.9L622.7 311.1 622.9 301.9 623.8 302.8C610.9 302.5 597.9 302.6 585 302.9 572.1 303.3 559.4 303.9 546.6 304.1 540.2 304.2 533.8 304.3 527.3 304.2 520.9 304.2 514.4 304.2 507.8 304.1 494.8 304 481.7 303.8 468.2 303.4M467.9 303.1C480.4 302.4 493.2 302 506.1 301.6 512.6 301.5 519.1 301.3 525.6 301.2 532.1 301 538.7 300.9 545.3 300.9 558.4 301 571.7 301.3 584.7 301.5 597.8 301.6 610.8 301.4 623.8 300.9L624.7 300.9 624.7 301.9 624.9 311.1 625 312.2 623.8 312.2C617.3 312.3 610.8 312.5 604.4 312.7 597.9 312.8 591.4 312.9 584.9 312.9 571.9 313.1 558.9 313.2 545.9 313.2L526.5 313.1C520 313 513.5 312.9 507 312.8 494 312.5 481 312.2 468 311.6L467.5 311.6 467.5 311.1C467.6 308.3 467.8 305.6 467.9 303.1" fill="#FFFFFF" mask="url(#mask-2)"/>
            <polygon fill="#831212" mask="url(#mask-2)" points="234.6 312 234.9 319.1 255.3 319.1 255.3 314"/>
            <path d="M234.5 311.9C235.8 311.6 237.4 311.4 239 311.3 240.7 311.1 242.5 311 244.3 311 246.1 311 248 311 249.9 311.2 251.8 311.4 253.7 311.7 255.5 312L257.4 312.4 257.3 314C257.2 315.7 257 317.4 256.7 319.1L256.4 320.6 255.3 320.4C253.6 320.1 251.9 319.8 250.2 319.7 248.5 319.7 246.8 319.8 245.1 320.1 243.4 320.5 241.7 320.9 240 321 238.3 321.1 236.6 320.9 234.9 320.8L233.1 320.6 233.1 319.1C233.2 317.7 233.4 316.3 233.6 315.1 233.8 314.5 233.9 313.9 234.1 313.3 234.2 312.8 234.3 312.3 234.5 311.9M234.8 312.2C235 312.9 235.2 313.6 235.3 314.2L235.9 316C236.2 317.1 236.4 318.1 236.6 319L234.9 317.3C236.6 317.2 238.3 317.1 240 317.2 241.7 317.3 243.4 317.7 245.1 318 246.8 318.3 248.5 318.5 250.2 318.4 251.9 318.3 253.6 318 255.3 317.7L254 319.1C253.7 317.4 253.5 315.7 253.4 314L255.1 316C253.5 316 252 315.9 250.4 315.8 248.9 315.7 247.3 315.4 245.7 315 244.1 314.7 242.4 314.2 240.6 313.8 238.8 313.3 236.9 312.8 234.8 312.2" fill="#FFFFFF" mask="url(#mask-2)"/>
            <polygon fill="#831212" mask="url(#mask-2)" points="235.5 351.2 255.5 351.2 255.4 356.7 235.8 355.5"/>
            <path d="M235.7 351.4C235.9 352.3 236.2 353 236.4 353.7 236.7 354.3 236.9 354.9 237.1 355.4L235.8 354.2C237.5 353.9 239.1 353.8 240.8 353.7 242.4 353.7 244.1 353.7 245.7 353.8 247.4 353.9 249 354.2 250.6 354.4 252.3 354.6 253.9 354.9 255.5 355.4L254.1 356.7C254.3 355.8 254.5 354.8 254.6 353.9 254.7 353 254.8 352.1 254.8 351.2L255.5 351.9C253.9 351.9 252.2 352.1 250.7 352.5 249.2 352.9 247.8 353.1 246.3 353 244.7 352.9 243.1 352.7 241.4 352.5 239.6 352.2 237.8 351.9 235.7 351.4M235.3 351.1C236.5 350.6 238 350.3 239.6 350 241.2 349.7 242.9 349.5 244.7 349.5 246.5 349.4 248.4 349.6 250.2 350 252.1 350.4 253.8 350.6 255.5 350.6L256.1 350.6 256.1 351.3C256.1 352.2 256.2 353.1 256.3 354 256.4 354.9 256.6 355.8 256.7 356.7L256.9 357.8 255.3 358C253.7 358.2 252 358.4 250.4 358.4 248.7 358.4 247.1 358.5 245.5 358.4 243.8 358.3 242.2 358.1 240.5 357.9 238.9 357.6 237.3 357.3 235.7 356.9L234.3 356.5 234.4 355.6C234.5 354.7 234.6 353.8 234.8 353.1 235 352.3 235.2 351.6 235.3 351.1" fill="#FFFFFF" mask="url(#mask-2)"/>
            <polygon fill="#831212" mask="url(#mask-2)" points="172.5 351.2 152.5 351.2 152.6 356.7 172.3 355.5"/>
            <path d="M172.7 351.1C172.8 351.6 173 352.3 173.2 353.1 173.4 353.8 173.5 354.7 173.6 355.6L173.7 356.5 172.3 356.9C170.7 357.3 169.1 357.6 167.5 357.9 165.8 358.1 164.2 358.3 162.6 358.4 160.9 358.5 159.3 358.4 157.6 358.4 156 358.4 154.3 358.2 152.7 358L151.1 357.8 151.3 356.7C151.4 355.8 151.6 354.9 151.7 354 151.8 353.1 151.9 352.2 151.9 351.3L151.9 350.6 152.5 350.6C154.2 350.6 155.9 350.4 157.8 350 159.6 349.6 161.5 349.4 163.3 349.5 165.1 349.5 166.8 349.7 168.4 350 170 350.3 171.5 350.6 172.7 351.1M172.4 351.4C170.2 351.9 168.4 352.2 166.6 352.5 164.9 352.7 163.3 352.9 161.8 353 160.2 353.1 158.8 352.9 157.3 352.5 155.8 352.1 154.2 351.9 152.5 351.9L153.2 351.2C153.2 352.1 153.3 353 153.4 353.9 153.5 354.8 153.7 355.8 153.9 356.7L152.5 355.4C154.1 354.9 155.8 354.6 157.4 354.4 159 354.2 160.7 353.9 162.3 353.8 163.9 353.7 165.6 353.7 167.2 353.7 168.9 353.8 170.5 353.9 172.2 354.2L170.9 355.4C171.1 354.9 171.3 354.3 171.6 353.7 171.8 353 172.1 352.3 172.4 351.4" fill="#FFFFFF" mask="url(#mask-2)"/>
            <polygon fill="#831212" mask="url(#mask-2)" points="152 312 152.2 319.1 172.8 319.1 172.8 314"/>
            <path d="M151.9 311.9C153.2 311.6 154.8 311.4 156.5 311.3 158.1 311.1 159.9 311 161.8 311 163.6 311 165.5 311 167.4 311.2 169.3 311.4 171.2 311.7 173 312L174.9 312.4 174.8 314C174.8 314.9 174.7 315.7 174.6 316.5 174.5 317 174.5 317.4 174.4 317.8L174.2 319.1 173.9 320.6 172.8 320.4C171.1 320.1 169.4 319.8 167.7 319.7 165.9 319.7 164.2 319.8 162.5 320.1 160.8 320.5 159.1 320.9 157.3 321 155.6 321.1 153.9 320.9 152.2 320.8L150.3 320.6 150.4 319.1C150.5 317.7 150.7 316.3 151 315.1 151.3 313.8 151.6 312.7 151.9 311.9M152.2 312.2C152.5 313.7 152.9 314.9 153.2 316 153.5 317.1 153.7 318.1 153.9 319L152.2 317.4C153.9 317.2 155.6 317.1 157.3 317.2 159.1 317.2 160.8 317.7 162.5 318 164.2 318.3 165.9 318.5 167.7 318.4 169.4 318.3 171.1 318 172.8 317.7L171.5 319.1 171.3 317.8C171.2 317.4 171.2 317 171.1 316.5 171 315.7 170.9 314.9 170.9 314L172.6 316C171 316 169.4 315.9 167.9 315.8 166.3 315.7 164.7 315.4 163.1 315 161.5 314.7 159.8 314.2 158 313.8 156.2 313.3 154.3 312.8 152.2 312.2" fill="#FFFFFF" mask="url(#mask-2)"/>
          </g>
        </g>
      </g>
    </g>
  </g>
</svg>